<?xml version="1.0" encoding="utf-8"?>
<!-- Generator: Adobe Illustrator 25.0.0, SVG Export Plug-In . SVG Version: 6.00 Build 0)  -->
<svg version="1.1" id="Layer_1" xmlns="http://www.w3.org/2000/svg" xmlns:xlink="http://www.w3.org/1999/xlink" x="0px" y="0px"
	 viewBox="0 0 283.46 283.46" style="enable-background:new 0 0 283.46 283.46;" xml:space="preserve">
<style type="text/css">
	.st0{fill:url(#SVGID_1_);}
	.st1{fill:url(#SVGID_2_);}
	.st2{fill:url(#SVGID_3_);}
	.st3{fill:none;stroke:#FFFFFF;stroke-width:3;stroke-miterlimit:10;}
	.st4{fill:#FFFFFF;}
</style>
<g>
	<g>
		
			<radialGradient id="SVGID_1_" cx="141.7323" cy="141.7323" r="141.3594" fx="259.0964" fy="141.7323" gradientUnits="userSpaceOnUse">
			<stop  offset="0" style="stop-color:#ED1D24"/>
			<stop  offset="0.3408" style="stop-color:#ED1D24"/>
			<stop  offset="0.7458" style="stop-color:#3755A4"/>
			<stop  offset="1" style="stop-color:#3656A5"/>
		</radialGradient>
		<circle class="st0" cx="141.73" cy="141.73" r="97"/>
		<circle class="st3" cx="141.73" cy="141.73" r="83.5"/>
	</g>
	<g>
		<path class="st4" d="M83.19,179.03c2.8-0.78,4.81-1.54,6.05-2.27c1.23-0.73,2.07-1.71,2.52-2.94c0.45-1.23,0.67-3.13,0.67-5.71
			v-42.5c0-4.48-0.34-8.01-1.01-10.58c-0.67-2.57-1.96-5.15-3.86-7.73l-1.34-1.85l1.34-1.85h35.28c6.16,0,10.3-0.73,12.43-2.18
			l2.02-1.51l1.68,1.51v21l-3.36,1.18c-2.02-6.05-4.01-10.19-5.96-12.43c-1.96-2.24-4.79-3.36-8.48-3.36h-5.54
			c-2.91,0-4.82,0.53-5.71,1.6c-0.9,1.07-1.34,3.33-1.34,6.8v25.2h11.93c4.37,0,7.22-1.68,8.57-5.04l0.84-2.35l2.18,1.18V154
			l-3.7,1.34l-0.67-3.53c-0.45-2.46-1.46-4.12-3.02-4.96c-1.57-0.84-4.54-1.26-8.9-1.26h-7.22v14.45c0,4.37,0.36,7.87,1.09,10.5
			c0.73,2.63,2.04,5.24,3.95,7.81l1.34,2.02l-1.34,1.68H84.36L83.19,179.03z"/>
		<path class="st4" d="M165.5,127.54c3.13,2.86,7.84,6.08,14.11,9.66c4.59,2.58,8.23,4.82,10.92,6.72c2.69,1.91,4.98,4.31,6.89,7.22
			c1.9,2.91,2.86,6.27,2.86,10.08c0,6.95-2.77,12.41-8.32,16.38c-5.54,3.98-12.96,5.96-22.26,5.96c-7.95,0-14.36-1.51-19.24-4.54
			c-4.87-3.02-7.31-7.11-7.31-12.26c0-3.36,1.15-6.02,3.44-7.98c2.29-1.96,5.18-2.94,8.65-2.94c2.69,0,5.26,0.67,7.73,2.02
			c-3.47,1.79-5.21,5.32-5.21,10.58c0,3.14,1.15,5.8,3.44,7.98c2.29,2.18,5.4,3.28,9.32,3.28c4.03,0,7.2-1.12,9.49-3.36
			c2.29-2.24,3.44-5.04,3.44-8.4c0-3.92-1.43-7.14-4.28-9.66c-2.86-2.52-7.2-5.46-13.02-8.82c-4.59-2.46-8.37-4.76-11.34-6.89
			c-2.97-2.13-5.46-4.76-7.48-7.9c-2.02-3.13-3.02-6.83-3.02-11.09c0-6.38,2.71-11.56,8.15-15.54c5.43-3.97,12.52-5.96,21.25-5.96
			c7.5,0,13.61,1.43,18.31,4.28s7.06,6.64,7.06,11.34c0,3.02-1.01,5.41-3.02,7.14c-2.02,1.74-4.76,2.6-8.23,2.6
			c-2.46,0-5.04-0.61-7.73-1.85c1.45-1.12,2.58-2.52,3.36-4.2c0.78-1.68,1.18-3.42,1.18-5.21c0-2.8-1.01-5.18-3.02-7.14
			c-2.02-1.96-4.98-2.94-8.9-2.94c-3.81,0-6.75,1.01-8.82,3.02c-2.07,2.02-3.11,4.48-3.11,7.39
			C160.8,121.01,162.37,124.68,165.5,127.54z"/>
	</g>
</g>
</svg>
