<svg id="Layer_1" data-name="Layer 1" xmlns="http://www.w3.org/2000/svg" xmlns:xlink="http://www.w3.org/1999/xlink" viewBox="0 0 364.72 76.85"><defs><style>.cls-1{fill:url(#linear-gradient);}.cls-2{fill:url(#linear-gradient-2);}</style><linearGradient id="linear-gradient" x1="500.64" y1="384.5" x2="693.83" y2="384.5" gradientUnits="userSpaceOnUse"><stop offset="0" stop-color="#3165af"/><stop offset="1" stop-color="#283277"/></linearGradient><linearGradient id="linear-gradient-2" x1="707.21" y1="384.5" x2="865.36" y2="384.5" gradientUnits="userSpaceOnUse"><stop offset="0" stop-color="#e02426"/><stop offset="1" stop-color="#ec1c24"/></linearGradient></defs><path class="cls-1" d="M500.64,421.71V353.84h38.22V368.6l-19.05-1.15V383.2h15.63v14.36l-15.63-1.16v25.31Zm68-4.52a11.25,11.25,0,0,1-1.76,1.62,27.85,27.85,0,0,1-2.72,1.86,17.23,17.23,0,0,1-3.74,1.59,15.65,15.65,0,0,1-4.52.66q-15.63,0-15.63-15.46a13.77,13.77,0,0,1,3.94-9.78,18.25,18.25,0,0,1,4.17-3.1,26.78,26.78,0,0,1,4.89-2.15,46.12,46.12,0,0,1,5.18-1.3,43.94,43.94,0,0,1,4.87-.69c1.42-.12,2.8-.18,4.11-.18v-1q0-3.53-1.88-5t-6.06-1.45a35.34,35.34,0,0,0-7.47.84,24.76,24.76,0,0,0-6.08,2l-3.7-7.88a41.08,41.08,0,0,1,10.25-4.48,43.24,43.24,0,0,1,12.85-1.94,34.08,34.08,0,0,1,9.56,1.12,12.76,12.76,0,0,1,6.11,3.83,15.79,15.79,0,0,1,3.33,6.83,47,47,0,0,1,1,10.51v23.57l1.62,4.52H571.06l-1.86-5.16Zm-2.57-4.78a5.72,5.72,0,0,0,1.36-1v-13.9a7.93,7.93,0,0,0-5.62,1.94q-2.09,1.94-2.08,6,0,7.25,4.92,7.24A3.17,3.17,0,0,0,566.05,412.41Zm26.61,9.3V384.24l-3.48-2.14v-6.55l12.45-3.07h4.69L608,386.27q2.38-14.19,15.23-14.19a9.5,9.5,0,0,1,3,.52l-2,20.62c-.81-.74-2.59-1.1-5.33-1.1q-5.91,0-7.59,3.12v26.47ZM635,421.1c-3.71-1.22-6.08-2.4-7.12-3.56l1.5-9.32a16.41,16.41,0,0,0,6.57,3.3,32.65,32.65,0,0,0,9.42,1.39q3.46,0,4.77-.87a2.77,2.77,0,0,0,1.31-2.43c0-1-.78-1.91-2.32-2.7a48.64,48.64,0,0,0-7.53-2.75q-13.5-4.05-13.49-16.79a13.79,13.79,0,0,1,3-8.95,17.07,17.07,0,0,1,7.7-5.42,31.18,31.18,0,0,1,10.48-1.67q9.9,0,14.6,3.64l1,1-2.55,8.28q-3.82-3.76-10.54-3.76-5.51,0-5.5,3.24a2.61,2.61,0,0,0,.41,1.53,3,3,0,0,0,1.36,1.05A12.26,12.26,0,0,0,650,387c.62.17,1.48.41,2.6.7s2.09.55,2.9.78q6.78,2.25,9.84,6.37a16.63,16.63,0,0,1,3.07,10.25q0,17.84-22.41,17.83A35,35,0,0,1,635,421.1Zm38.34-36.86-3.48-2.14v-6.2l12.45-3.42H692v49.23H673.33Zm-1.1-26.64v-2l9.49-9.49h2.2l9.91,9.49v2l-9.91,9.56h-2.2Z" transform="translate(-500.64 -346.08)"/><path class="cls-2" d="M725.42,421.91q-4.36-.2-9-.2h-9.21V353.84h9.21c2.59,0,5.4-.14,8.45-.29s5.45-.24,7.18-.24q14.78,0,21.17,8.29t6.4,24.15A70.08,70.08,0,0,1,758.9,396a43.07,43.07,0,0,1-2.7,9.75,30,30,0,0,1-5,8.43,21.72,21.72,0,0,1-8,5.73,27.76,27.76,0,0,1-11.35,2.2C730.49,422.11,728.34,422.05,725.42,421.91Zm11.41-15.14q2.35-5.44,2.35-18V383q0-9.15-2.2-14.13c-1.47-3.32-3.55-5-6.26-5h-4.34v48.36h3.71Q734.48,412.21,736.83,406.77Zm28.87-22.53-3.47-2.14v-6.2l12.45-3.42h9.67v49.23H765.7Zm-1.1-26.64v-2l9.5-9.49h2.2l9.9,9.49v2l-9.9,9.56h-2.2Zm66,59.94a11,11,0,0,1-1.83,1.48,26.79,26.79,0,0,1-3.12,1.79,20.42,20.42,0,0,1-4.87,1.51,33.65,33.65,0,0,1-6.51.6q-11.76,0-18-6.89t-6.22-18.24A31.41,31.41,0,0,1,792,386.61a22.66,22.66,0,0,1,13.06-13.52,25.6,25.6,0,0,1,9.7-1.82q10.08,0,15.64,4.8l1.21,1.22-.87,13.61-8.22.06-3.3-8.86a5.28,5.28,0,0,0-1.27-.12q-5.28,0-7.27,3.62t-2,12.54a29.42,29.42,0,0,0,.64,6.63,14.92,14.92,0,0,0,1.44,4.11,5.66,5.66,0,0,0,2.18,2.11,6.47,6.47,0,0,0,2.22.87,16.16,16.16,0,0,0,2.15.12,26.13,26.13,0,0,0,5.93-.7,12.32,12.32,0,0,0,5-2.25l2.9,7.87Zm9.41.69q-3.1-4.68-3.1-15.86V382.68h-4v-8.05l6.84-2.15,5.9-13.49h10.19v13.49h9.5v10.2h-9.67v21.54c0,3.09.44,5.13,1.33,6.14a5.23,5.23,0,0,0,4.12,1.5,7.49,7.49,0,0,0,2.19-.29,4.53,4.53,0,0,0,1.63-.81v7.88a12.09,12.09,0,0,1-2.26,1.71,19.34,19.34,0,0,1-4.61,1.71,27.75,27.75,0,0,1-7.15.86Q843.13,422.92,840,418.23Z" transform="translate(-500.64 -346.08)"/></svg>