<svg xmlns="http://www.w3.org/2000/svg" viewBox="0 0 320 160" fill="none">
    <path opacity=".6"
          d="M176.34 136.59c-8.21 8.32-15.3 2.5-28.08 2.3-7.4-.11-9.23-3-14.83-6.3-13.66-8.07-15.05 0-27.05 2.41s-31-12-34-24-2.32-28.42 14.5-36.5c14.7-7.06 21.3-1.55 30.3-15.34 8.51-13.01 9.08-30.37 22.25-40.95 5.12-4.11 15.34-10.95 23.07-8.8 5.27 1.46 10.5 7.88 13.62 11.63 6.92 8.3 5.43 21.73 19.09 23.31 6.76.78 10.39-2.99 19.38-2.17 8.99.82 12.38 6.2 14.3 15.1 1.37 6.32 2.86 14.67 1.37 21.13-.95 4.14-4.64 7.61-6.68 11.55-5.95 11.46 3.88 19.92 4.35 31.6.42 10.63-9.16 19.94-19.47 24.94-8.9 4.33-17.46.49-19.58-7.61-2.5-3.89-4.2-4.53-14-1.8"
          fill="#fff"/>
    <path d="M114.89 106.21l2.55 2.56 78.39-78.39-2.56-2.55-78.38 78.38z" fill="#CD9847"/>
    <path d="M155.35 116.5a48.2 48.2 0 100-96.4 48.2 48.2 0 000 96.4z" fill="#76B6F0"/>
    <path opacity=".2"
          d="M203.28 63.27a48.36 48.36 0 00-.76-4.9l-3.24-3.23c-.54-4.5-1.8-9-3.44-13a48.48 48.48 0 00-14.2-14.25 50.4 50.4 0 00-13.14-3.53l-3.23-3.23c-1.62-.34-3.25-.6-4.9-.77-.13 1.13.5 1.49 2.68 3.66a47.2 47.2 0 00-16.03 2.72l-4.81-4.82a48.1 48.1 0 00-3.67 1.2c.19.52 0 .25 4.83 5.07a54.79 54.79 0 00-15.3 10.35L122.52 33a49.23 49.23 0 00-2.55 2.55l5.53 5.54a54.75 54.75 0 00-10.26 15.21c-4.8-4.8-4.55-4.64-5.08-4.82a48.1 48.1 0 00-1.2 3.66l4.82 4.82a47.2 47.2 0 00-2.71 16.02c-2.26-2.26-2.56-2.8-3.66-2.67.17 1.64.42 3.27.76 4.9l3.24 3.23c.6 4.97 2.03 9.53 3.58 13.22a48.47 48.47 0 0014.16 14.1 48.64 48.64 0 0013.04 3.46l3.2 3.23c1.64.34 3.28.6 4.93.77.15-1.1-.43-1.4-2.68-3.66 5.43.03 10.84-.88 16.03-2.72 2.5 2.5 3.92 3.97 4.8 4.83 1.24-.35 2.47-.75 3.69-1.2-.18-.52-.01-.26-4.83-5.08a54.75 54.75 0 0015.21-10.26l5.53 5.53a48.15 48.15 0 002.56-2.55l-5.53-5.54a54.82 54.82 0 0010.34-15.3c3.61 3.6 4.44 4.58 5.08 4.84.45-1.21.85-2.44 1.2-3.68l-4.82-4.81a47.2 47.2 0 002.72-16.03c2.33 2.33 2.56 2.8 3.66 2.67zM191.23 40.8a45.5 45.5 0 013.57 9.87l-4.09-4.1c.22-1.68.41-3.6.52-5.77zm-3.55-4.82c.05 2.47-.03 4.91-.24 7.33l-7.09-7.09c2.41-.2 4.86-.3 7.33-.24zm-19.55 16.99l-12.82 12.82-12.76-12.76a61.69 61.69 0 0115.11-10.53l10.47 10.47zm-6.95-12.07a63.42 63.42 0 0114.61-4.12l4.27 4.26-9.37 9.37-9.51-9.5zm-8.43 27.45l-12.73 12.74-10.47-10.47a61.67 61.67 0 0110.44-15.03l12.76 12.76zm-15.3 15.3L128.1 93l-4.27-4.26c.8-5.08 2.19-9.98 4.13-14.62l9.5 9.51zm2.57 2.55l9.5 9.5a63.45 63.45 0 01-14.61 4.14l-4.27-4.27 9.38-9.37zm2.55-2.56l12.74-12.74 12.76 12.76a61.67 61.67 0 01-15.03 10.45l-10.47-10.47zm15.3-15.3l12.82-12.81 10.46 10.46a61.65 61.65 0 01-10.52 15.12l-12.76-12.76zm15.37-15.37l9.38-9.37 4.26 4.26a63.42 63.42 0 01-4.13 14.62l-9.5-9.51zm9.62-20.54c-1.68.08-3.75.25-5.78.52l-4.09-4.09a45.6 45.6 0 019.87 3.57zm-15.99-4.58l5.82 5.82c-4.85.96-9.6 2.44-14.25 4.5l-8.56-8.57a43.63 43.63 0 0117-1.75zm-20.76 3.1l8.88 8.87a64.82 64.82 0 00-15 10.65l-9.37-9.36a50.4 50.4 0 0115.5-10.16zm-18.04 12.71l9.37 9.37a64.82 64.82 0 00-10.57 14.91L118 59.06a50.36 50.36 0 0110.07-15.4zm-8.6 52.15a45.66 45.66 0 01-3.57-9.87l4.1 4.1c-.27 1.97-.44 3.99-.53 5.77zm1.25-10.17l-5.82-5.81a43.67 43.67 0 011.75-17l8.56 8.57a67.48 67.48 0 00-4.5 14.24zm2.3 15c-.05-2.48.04-4.92.25-7.33l7.08 7.08c-2.41.2-4.85.3-7.33.24zm4.83 3.54c2-.1 4.03-.28 5.78-.51l4.09 4.08c-3.3-.78-6.61-1.94-9.87-3.57zm15.98 4.58l-5.81-5.82a67.51 67.51 0 0014.24-4.5l8.57 8.57a43.66 43.66 0 01-17 1.75zm20.76-3.1l-8.87-8.87a64.8 64.8 0 0014.9-10.57l9.37 9.37a50.26 50.26 0 01-15.4 10.07zm17.96-12.62l-9.37-9.37a64.84 64.84 0 0010.65-15l8.88 8.87a50.34 50.34 0 01-10.16 15.5zm11.5-19.26l-8.56-8.57a67.22 67.22 0 004.5-14.24l5.81 5.82c.53 5.59 0 11.32-1.75 16.99z"
          fill="#fff" fill-opacity=".6"/>
    <path d="M179.06 87.38l-40.38 16.33a11.76 11.76 0 00-3.35 8.44 48.21 48.21 0 0056.33-12.17l-12.6-12.6zM195.43 41.51l-2.17 2.17a18.58 18.58 0 00-3 3.94l.02 16c.2.25.41.49.64.72a4.16 4.16 0 01-2.61 7.08l-2.95 6.79.08.07 12.53 12.54a48.27 48.27 0 00-2.54-49.3z"
          fill="#9DD76D"/>
    <path d="M160.43 73.93a12.5 12.5 0 00-8.84 3.67l-3.47 3.46a15.94 15.94 0 00-4.67 11.28c0 4.23-1.68 8.28-4.67 11.27l-.1.1a48.08 48.08 0 0040.38-16.33l-9.78-9.78a12.5 12.5 0 00-8.85-3.67zM173.19 23.51a48.25 48.25 0 00-46.55 6.07v16.54c0 2.7-2.19 4.88-4.89 4.88h-11.4a48.38 48.38 0 00-2.24 26.84h4.86A19.64 19.64 0 00132.6 58.2v-3.33a7.27 7.27 0 017.28-7.28h13.93c2.72 0 4.92 2.2 4.92 4.92 0 1.4-.55 2.74-1.54 3.72a3.8 3.8 0 005.38 5.39l6.38-6.38A14.46 14.46 0 00173.2 45v-21.5zM185.04 70.21l-4.16-4.17a4.82 4.82 0 00-3.41-1.4h-1.7a4.82 4.82 0 00-4.83 4.81v.48c0 .97.39 1.9 1.08 2.6l1.71 1.7a5.02 5.02 0 003.56 1.48h1.94c2.3 0 4.5.9 6.14 2.5a47.92 47.92 0 002.94-6.8c-1.17.1-2.37-.3-3.27-1.2zM190.26 47.62a18.6 18.6 0 00-2.45 9.2c0 2.5.88 4.9 2.47 6.8.88-5.29.87-10.7-.02-16z"
          fill="#9DD76D"/>
    <path d="M155.75 126.1a56.87 56.87 0 01-40.47-16.77l-3.07-3.07a1.8 1.8 0 112.56-2.56l3.07 3.07a53.28 53.28 0 0037.91 15.72 53.27 53.27 0 0037.92-15.72 53.27 53.27 0 0015.72-37.91 53.27 53.27 0 00-15.72-37.92l-3.07-3.07a1.8 1.8 0 112.55-2.55l3.07 3.07A56.87 56.87 0 01213 68.86a56.86 56.86 0 01-16.78 40.47 56.86 56.86 0 01-40.47 16.78z"
          fill="#C37800"/>
    <path d="M179.45 133a9.15 9.15 0 00-9.16-9.16h-29.88a9.15 9.15 0 00-9.16 9.16v3.28h48.2V133z" fill="#C37800"/>
    <path d="M189.43 34.22a48.43 48.43 0 00-6.89-5.72 48.21 48.21 0 01-66.99 66.99 48.2 48.2 0 1073.88-61.27z"
          fill="#000" fill-opacity=".08"/>
    <path d="M178.08 128.18a9.15 9.15 0 00-7.79-4.34h-5.42a9.15 9.15 0 019.16 9.16v3.28h5.42V133a9.1 9.1 0 00-1.37-4.82z"
          fill="#AC6A00"/>
    <path d="M120.21 136.28c0-2 1.62-3.61 3.62-3.61h63.05c2 0 3.61 1.62 3.61 3.62v3.61h-70.28v-3.62z" fill="#965C00"/>
</svg>
