<svg
    xmlns="http://www.w3.org/2000/svg"
    viewBox="0 0 320 160"
    fill="none"
>
    <path opacity=".6" d="M145 130.35c10.29 5.7 17.62-.35 32.06-2.56 8.37-1.29 10.1-4 16.04-7.7 14.51-8.98 17.05-2.4 30.92-2.3 13.88.1 33.67-15.09 35.63-25.68 1.97-10.58-.76-24.3-20.77-28.4-17.5-3.59-24.3 2.11-36.15-8.05-11.19-9.6-13.9-24.12-30.08-30.91-6.29-2.65-18.67-6.76-27.17-3.71-5.8 2.08-10.95 8.32-14.04 11.98-6.84 8.1-3.55 19.17-18.83 22.7-7.56 1.74-12.12-.85-22.2 1.28s-13.28 7.2-14.4 15.01c-.79 5.54-1.48 12.82.98 18.02 1.57 3.33 6.16 5.66 8.94 8.64 8.1 8.7-2.01 17.4-1.14 27.32.78 9.01 12.75 15.32 25.01 17.88 10.6 2.2 19.83-2.4 21.27-9.56 2.37-3.68 4.22-4.5 15.64-3.77" fill="#fff"/>
    <path d="M143.87 72.67c-4.01 9.15-3.17 15.41-4.86 20.8-2.53 7.9-9.63 6.89-9.63 6.89s1.05-6.97 1.33-16.08a9.26 9.26 0 015.45-8.12l7.7-3.49z" fill="#FC9F86"/>
    <path d="M135.85 84.39c2.39-5.56 2.35-12.28 6.79-21.25.38-.77.77-1.55 1.23-2.36l-2.71.92-6.65 2.22c-.53.17-1.02.38-1.51.63v24.1a12.34 12.34 0 002.85-4.26z" fill="#FC9F86"/>
    <path d="M133.03 64.55v24.1c-4.04 3.9-9.14 2.63-9.14 2.63s.14-.77.39-1.97l1.75-9.32c.6-3.3 1.13-6.26 1.27-7.25.39-3.55 2.6-6.57 5.73-8.2z" fill="#FFBDA6"/>
    <path d="M138.98 48.97c3.3-1.41 6.86-3.06 10.34-4.93.42-.2.84-.46 1.27-.67a155.89 155.89 0 01-10.94-7.6c-.32-.24-.6-.45-.92-.66-1.55-1.2-3.9-3.1-5.7-4.61v13.23c1.13 1.09 2.4 2.18 3.73 3.34l2.22 1.9z" fill="#FC9F86"/>
    <path d="M130.43 28.32s-5.31 5.98.53 13.15c.63.78 1.33 1.52 2.07 2.22v-13.2l-2.6-2.17zM132.86 51.46c-3.7 1.41-11.36 3.9-11.36 3.9s2.25 7.68 11.43 6.55h.07V51.39c-.04 0-.07.04-.14.07z" fill="#FFBDA6"/>
    <path d="M145 55.44a47.7 47.7 0 00-6.06-6.47c-.03.03-.1.03-.14.07a156.5 156.5 0 01-5.8 2.35v10.49c3.94-.5 7.74-2.19 12.84-3.42.35-.07.73-.17 1.12-.24-.63-.99-1.3-1.94-1.97-2.78z" fill="#FC9F86"/>
    <path d="M197.86 129.97c-1.3 10.06-21.8 15.7-30.53 9.18-5.31-3.97-5.84-19.17-12.67-22.44-6.82-3.27-10.58-9.14-12.3-12.48-.78-1.55-1.13-2.54-1.13-2.54s.56-.07 1.58-.14c5.95-.6 27.33-2.46 39.47-.8 1.09.13 2.1.31 3.02.52 3.45.78 5.6 2 5.52 3.87-.35 8.8 8.38 14.32 7.04 24.83z" fill="#FFBDA6"/>
    <path d="M159.52 30.82c8.4 0 16.07 4.32 21.95 11.5V24.7c0-2.33-1.9-4.23-4.22-4.23h-35.46a4.23 4.23 0 00-4.22 4.23v17.62c5.87-7.18 13.54-11.5 21.95-11.5z" fill="#F6FDFF"/>
    <path d="M181.47 41.72v53.36A4.52 4.52 0 01177 99.2h-35a4.46 4.46 0 01-4.47-4.47V41.72a36.08 36.08 0 017.11-6.65 28.34 28.34 0 016.93-3.52c2.53-.87 5.2-1.33 7.91-1.33 3.9 0 7.67.95 11.15 2.67l1.24.63c.03.04.1.07.14.07.35.22.74.43 1.09.64a34.87 34.87 0 018.37 7.5z" fill="#E2F7FF"/>
    <path d="M182.24 100.67a4.46 4.46 0 01-2.92 1.1h-35c-.56 0-1.05-.11-1.54-.29-1.02.1-1.59.14-1.59.14s.36 1.02 1.13 2.53c.5.15 1.02.18 1.58.18h35.81a6.4 6.4 0 005.52-3.16c-.88-.18-1.9-.36-2.99-.5z" fill="#FC9F86"/>
    <path d="M177.42 17.94h-35.8a6.36 6.36 0 00-6.37 6.37V95.4a6.36 6.36 0 006.37 6.36h35.8a6.36 6.36 0 006.37-6.36V24.3a6.36 6.36 0 00-6.37-6.36zm4.05 15.23V94.65a4.47 4.47 0 01-4.47 4.48h-35c-2.46 0-4.46-2.01-4.46-4.47V24.77c0-2.33 1.9-4.22 4.22-4.22h35.45c2.32 0 4.22 1.9 4.22 4.22v8.4h.04z" fill="#42144A"/>
    <path d="M149.21 24.27H145a.6.6 0 01-.6-.6v-.45c0-.35.29-.6.6-.6h4.22c.35 0 .6.28.6.6v.46a.6.6 0 01-.6.6zM142.78 24.27h-1.2a.6.6 0 01-.6-.6v-.45c0-.35.29-.6.6-.6h1.2c.35 0 .6.28.6.6v.46c0 .31-.28.6-.6.6zM176.33 24.27a.88.88 0 100-1.76.88.88 0 000 1.76zM170.07 24.27a.88.88 0 100-1.76.88.88 0 000 1.76zM173.2 24.27a.88.88 0 100-1.76.88.88 0 000 1.76z" fill="#BDD8FF"/>
    <path d="M127.86 85.09l-.42 3.3c-.07.6-.6 1.06-1.23 1.03l-1.97-.1 1.76-9.33a5.91 5.91 0 011.86 5.1z" fill="#FFD7C9"/>
    <path d="M190.79 105.07l-2.67-1.62c-5.31 8.06-13.09 12.2-17.94 9.4-5.2-3.03-4.61-12.63.14-22.1a52.1 52.1 0 014.96-7.95 28.04 28.04 0 005.52-13.26c1.1-8.86-1.97-14.6-1.48-20.3.88-10.05 9.57-10.72 9.57-10.72a133.24 133.24 0 00.25 2.92v.14a200.95 200.95 0 001.33 10.3c.07.36.1.7.18 1.06 1.09 6.54 2.74 14.5 5.28 22.16 1.93 5.73-3.73 21.46-5.14 29.97z" fill="#FFBDA6"/>
    <path d="M190.47 51.29a5.69 5.69 0 01-3.94-4.33l-.66-3.52c-.1-.6.24-1.2.84-1.33l2.46-.67v.14c.25 2.25.64 5.66 1.3 9.7z" fill="#FFD7C9"/>
    <path fill="#fff" d="M168.9 29.53h18.95v14.74H168.9z"/>
    <path d="M188.4 27h-22.7a2.71 2.71 0 00-2.7 2.7v14.23c0 1.47 1.22 2.7 2.7 2.7h2.48l-1.05 5.51 5.77-5.51h15.5c1.47 0 2.69-1.23 2.69-2.7V29.7c0-1.48-1.22-2.7-2.7-2.7zm-10.83 15.7s-8.93-6.65-6.32-10.27c2.53-3.53 6.28 1.56 6.28 1.56s2.02-3.62 4.13-2.95c5.43 1.81-4.09 11.67-4.09 11.67z" fill="#E54B72"/>
    <path fill="#fff" d="M131.27 53.26h20.34v15.82h-20.34z"/>
    <path d="M153.6 51H129.2a2.91 2.91 0 00-2.9 2.9v15.32c0 1.58 1.32 2.9 2.9 2.9h16.68l6.2 5.91-1.13-5.92h2.66c1.59 0 2.9-1.3 2.9-2.9V53.9c0-1.62-1.31-2.89-2.9-2.89zm-11.66 16.86s-9.59-7.19-6.78-11.07c2.71-3.8 6.73 1.67 6.73 1.67s2.17-3.89 4.43-3.17c5.88 2-4.38 12.57-4.38 12.57z" fill="#3D97E9"/>
</svg>