<svg
    xmlns="http://www.w3.org/2000/svg"
    viewBox="0 0 320 160"
    fill="none"
>
    <g clip-path="url(#skill-es-60-clip0)">
        <path d="M86.07 84.38C81.42 80.4 77.1 76.32 75.5 69.9a26.14 26.14 0 01-.68-4.46c-1.42-20.12 18.1-37.97 35.67-44.18l.1-.03c12.26-4.28 29.29-11.71 40.65-5.43 9.42 5.21 15.57 9.9 25.5 6.26a74.15 74.15 0 006.74-2.94c10.58-6.26 25.62.75 37.2 7.47 15.08 8.76 25.4 26.72 18.66 43.6-.39 1.48-.78 2.96-1.11 4.45-1.01 4.45-1.55 8.94-.18 13.75.4 1.44.85 2.88 1.3 4.33 6.81 14.34-.36 30.48-12.48 39.23a57.71 57.71 0 01-4.33 3.15 70.02 70.02 0 01-19.47 8.77 73.1 73.1 0 01-5.72 1.4c-1.94.4-3.91.74-5.9 1-11.79 1.6-23.61 2.65-35.5 2.32-2.94-.08-5.9-.25-8.97-.4-2.2-.07-4.56-.06-7-.05-2.42.01-4.94.04-7.44-.05a29.4 29.4 0 01-23.27-12.59c-6.15-8.8-7.1-19.95-9.08-30.24a29.22 29.22 0 00-9.35-16.79c-1.56-1.41-3.18-2.75-4.77-4.1z" fill="#E0F3D1"/>
        <path d="M127.75 69.46l-.03-16.99s-2.75.43-4.43.87c-1.55.4-4 1.23-4 1.23a47.6 47.6 0 00-7.16 21.97s1.51 2.14 2.34 3.15a70.4 70.4 0 003.25 3.51l10.03-13.74z" fill="#4F4D4C"/>
        <path d="M192.26 69.45l10.02 13.75s2.04-2.18 3.22-3.78a45.38 45.38 0 002.33-3.45 47.63 47.63 0 00-7.07-21.31s-1.82-.69-4.11-1.31c-2.15-.58-4.35-.88-4.35-.88l-.04 16.98z" fill="#383635"/>
        <path d="M160 46.04l16.22-5.3s-1.26-2.45-2.38-4.13c-1.31-1.95-2.4-3.24-2.4-3.24a48.59 48.59 0 00-23.03.05s-1.57 2.12-2.38 3.37a56.15 56.15 0 00-2.22 3.97L160 46.04z" fill="#4F4D4C"/>
        <path d="M140.06 107.38l-16.2-5.25s-.41 2.84-.52 4.3c-.12 1.59-.12 4.4-.12 4.4a48.08 48.08 0 0018.97 13.75s2.24-.7 3.94-1.45c1.98-.88 3.92-1.97 3.92-1.97l-10-13.78z" fill="#383635"/>
        <path d="M179.96 107.38l-10 13.78s2.2 1.16 3.91 1.85a50.9 50.9 0 004.21 1.46 48.28 48.28 0 0018.72-13.65s.06-2.3-.08-4.13c-.16-2.07-.59-4.56-.59-4.56l-16.17 5.25z" fill="#333130"/>
        <path d="M169.96 121.16s3.25-2.96 5.75-6.46c2.69-3.75 4.25-7.32 4.25-7.32l-10.01-13.75h-19.9l-10 13.75s1.8 4.04 4.23 7.34a50.65 50.65 0 005.77 6.44s4.3 1.25 9.95 1.25c5.26 0 9.96-1.25 9.96-1.25z" fill="#DDDEDE"/>
        <path d="M202.28 83.2s-1.72-3.86-4.5-7.66c-2.43-3.34-5.51-6.09-5.51-6.09l-16.18 5.27-6.14 18.92 10 13.76s4.4-.5 8.4-1.82c4.27-1.4 7.78-3.44 7.78-3.44s2.56-3.95 4.22-9.05c1.67-5.11 1.93-9.89 1.93-9.89z" fill="#D5D6D6"/>
        <path d="M117.72 83.2s1.7-3.85 4.33-7.42c2.61-3.56 5.7-6.3 5.7-6.3l16.16 5.24 6.14 18.92-10 13.76s-4.1-.44-8.47-1.82c-4.22-1.34-7.71-3.45-7.71-3.45s-2.6-3.66-4.25-9c-1.72-5.56-1.9-9.93-1.9-9.93z" fill="#EFF0F0"/>
        <path d="M127.7 52.47s-.84 4.12-.84 8.03c0 4.78.88 8.96.88 8.96l16.17 5.26L160 63.02V46.04s-3.6-2.1-8.17-3.58a39.35 39.35 0 00-8.02-1.7s-3.96 1.4-8.65 4.79a40.41 40.41 0 00-7.45 6.92z" fill="#FAFAFA"/>
        <path d="M160 63.02V46.04s3.8-2.2 8-3.54a43.5 43.5 0 018.22-1.75s3.78 1.4 8.57 4.79c4.4 3.1 7.51 6.93 7.51 6.93s.84 3.58.84 8.39c0 4.75-.88 8.58-.88 8.58l-16.17 5.28L160 63.02z" fill="#EDEDED"/>
        <path d="M150.05 93.63s-2.8-6.85-3.7-9.66c-.92-2.8-2.44-9.26-2.44-9.26s5.03-4.31 7.75-6.31c2.65-1.96 8.35-5.4 8.35-5.4s5.83 3.62 8.51 5.54c2.45 1.76 7.6 6.16 7.6 6.16s-1.56 6.36-2.55 9.48c-.98 3.1-3.6 9.44-3.6 9.44s-6.61.52-10.16.52c-3.33 0-9.76-.5-9.76-.5z" fill="#454342"/>
        <path d="M169.96 121.16s-.01 0 0 0c0 0-4.7 1.25-9.96 1.25-5.64 0-9.92-1.24-9.95-1.25 0 0-1.94 1.1-3.92 1.97-1.7.75-3.94 1.45-3.94 1.45-.45-.18 7.47 3.42 17.81 3.42 6.4 0 12.5-1.26 18.09-3.53-.02 0-2.15-.62-4.22-1.45-1.7-.7-3.9-1.86-3.9-1.86zM202.28 83.2c-.02 0 0 0 0 0s-.26 4.78-1.93 9.88c-1.66 5.1-4.22 9.05-4.22 9.05s.43 2.5.59 4.56c.13 1.82.08 4.1.08 4.13a47.76 47.76 0 0011.03-34.85c-.01.02-1.1 1.8-2.33 3.45a59.95 59.95 0 01-3.22 3.78z" fill="#CBCCCC"/>
        <path d="M123.22 110.84s0-2.8.12-4.4c.1-1.46.53-4.29.53-4.3 0 0-2.6-3.66-4.25-9-1.72-5.56-1.9-9.94-1.9-9.94a70.06 70.06 0 01-3.25-3.51 69.72 69.72 0 01-2.34-3.13 47.98 47.98 0 0011.09 34.28z" fill="#F4F5F5"/>
        <path d="M127.7 52.47s2.86-3.62 7.45-6.92c4.7-3.39 8.66-4.79 8.66-4.79s1.26-2.48 2.22-3.97c.8-1.25 2.38-3.37 2.38-3.37.45-.12.92-.22 1.39-.33a48.08 48.08 0 00-30.52 21.48c.41-.13 2.6-.87 4.01-1.23 1.67-.44 4.38-.87 4.42-.87z" fill="#F7F7F7"/>
        <path d="M176.22 40.75c.02 0 3.78 1.4 8.57 4.79 4.4 3.1 7.51 6.93 7.51 6.93v.01s2.2.3 4.35.87c2.28.61 4.09 1.3 4.11 1.3a48.1 48.1 0 00-29.34-21.28s1.1 1.3 2.4 3.24a47.8 47.8 0 012.4 4.14z" fill="#F2F2F2"/>
        <mask id="skill-es-60-a" x="119" y="38" width="69" height="69">
            <path d="M178.6 47.61c12.83 12.83 12.14 34.3-1.51 47.97-13.66 13.66-35.14 14.34-47.95 1.5-12.83-12.82-12.16-34.29 1.5-47.94 13.68-13.66 35.14-14.36 47.96-1.53z" fill="url(#skill-es-60-paint0_linear)"/>
        </mask>
        <g mask="url(#skill-es-60-a)">
            <path opacity=".6" d="M208 80a48 48 0 01-90.29 22.72 46.65 46.65 0 0030.4 11.24c25.74 0 46.6-20.74 46.6-46.33a46.01 46.01 0 00-10.17-28.87A47.98 47.98 0 01208 80z" fill="#696969"/>
        </g>
    </g>
    <defs>
        <linearGradient id="skill-es-60-paint0_linear" x1="131.12" y1="49.6" x2="169.89" y2="88.38" gradientUnits="userSpaceOnUse">
            <stop stop-color="#fff"/>
            <stop offset=".19" stop-color="silver"/>
            <stop offset=".41" stop-color="#7C7C7C"/>
            <stop offset=".61" stop-color="#474747"/>
            <stop offset=".78" stop-color="#202020"/>
            <stop offset=".92" stop-color="#090909"/>
            <stop offset="1"/>
        </linearGradient>
        <clipPath id="skill-es-60-clip0">
            <path fill="#fff" d="M0 0h320v160H0z"/>
        </clipPath>
    </defs>
</svg>