<svg
        xmlns="http://www.w3.org/2000/svg"
        viewBox="0 0 320 160"
        fill="none"
>
    <g clip-path="url(#skill-es-61-a)">
        <path d="M159.752 82.5036c45.702 0 82.752-37.0492 82.752-82.751784C242.504-45.9507 205.454-83 159.752-83 114.049-83 77-45.9507 77-.248184 77 45.4544 114.049 82.5036 159.752 82.5036Z" fill="#fff" fill-opacity=".6"/>
        <path d="M128.029 21.28s-3.76 6.272-3.76 10.016c0 3.744 7.328 98.944 7.328 98.944l-8.704 2.384s-7.888-98.24-7.888-99.152c0-.512-.208-3.408 2.176-5.664 1.76-1.696 5.872-4.608 10.848-6.528Z" fill="#2C2B33"/>
        <path d="m140.86 39.504-6.736-15.28s-2.16-2.784-4.944-3.088c-1.488-.16-4.144 1.072-6.688 2.704-2.192 1.392-4.416 3.184-4.416 3.184s4.32-1.248 6.48 1.84 8.032 20.368 8.032 20.368l8.272-9.728Z" fill="#46454D"/>
        <path d="M192.124 21.344s3.76 6.272 3.76 10.016c0 3.744-9.984 98.08-9.984 98.08l12.832 3.168s6.4-98.176 6.4-99.072c0-.512.208-3.408-2.176-5.664-1.744-1.68-5.872-4.592-10.832-6.528Z" fill="#2C2B33"/>
        <path d="m179.277 39.584 6.736-15.28s2.16-2.784 4.944-3.088c1.488-.16 4.144 1.072 6.688 2.704 2.192 1.392 4.416 3.184 4.416 3.184s-4.32-1.248-6.48 1.84-8.032 20.368-8.032 20.368l-8.272-9.728Z" fill="#46454D"/>
        <path d="m155.613 38.048-.16-14.016c0-3.264 1.792-3.648 3.808-3.648h4.368c2.016 0 3.792.608 3.792 3.872l-.144 13.776h4.416V23.536c0-3.264-2.912-7.536-6.496-7.536h-7.808c-3.584 0-6.496 4.272-6.496 7.536v14.496h4.72v.016Z" fill="#2C2B33"/>
        <path d="M155.453 16.416c-2.64 1.152-4.56 4.48-4.56 7.12v14.496h4.56V16.416ZM167.133 16.416c2.64 1.152 4.56 4.48 4.56 7.12v14.496h-4.56V16.416Z" fill="#46454D"/>
        <path d="M160.813 28.6563V143.792h-32.704s-5.2-.72-6.32-3.264c-1.12-2.544-1.856-7.616-1.856-10.144V61.5203s-1.104-12.896 10.032-24.48c6.8-7.072 16.768-8.4 23.52-8.368 4.32 0 7.328-.016 7.328-.016Z" fill="#1871D2"/>
        <path d="M153.484 28.6561c-6.752-.032-16.72 1.296-23.52 8.368-11.152 11.6-10.032 24.48-10.032 24.48v5.168c.208-3.792 1.664-12.416 10.032-20.368 6.8-6.448 16.768-7.68 23.52-7.648 4.32.016 7.328 0 7.328 0v-10s-3.008.016-7.328 0Z" fill="#244D79"/>
        <path d="M160.812 28.656v115.136h32.705s5.2-.72 6.32-3.264c1.12-2.544 1.856-7.616 1.856-10.144V61.52s1.104-12.896-10.032-24.48c-6.832-7.104-16.833-8.432-23.585-8.384-4.288.016-7.264 0-7.264 0Z" fill="#1871D2"/>
        <path d="M168.076 38.672c6.752-.032 16.752 1.168 23.568 7.648 8.368 7.952 9.824 16.56 10.032 20.368V61.52s1.104-12.896-10.032-24.48c-6.816-7.104-16.816-8.432-23.568-8.384-4.288.032-7.264 0-7.264 0v10.032c0-.016 2.976.016 7.264-.016Z" fill="#244D79"/>
        <path d="M171.885 82.48c.224.976-.4 1.952-1.392 2.176l-33.504 7.376c-.976.224-1.952-.4-2.176-1.392l-12.08-54.928c-.224-.976.4-1.952 1.392-2.176l33.504-7.376c.976-.224 1.952.4 2.176 1.392l12.08 54.928Z" fill="#F7E857"/>
        <path d="M174.812 84.736c.224.976-.4 1.952-1.392 2.176l-33.504 7.376c-.976.224-1.952-.4-2.176-1.392l-12.064-54.944c-.224-.976.4-1.952 1.392-2.176l33.504-7.376c.976-.224 2.288.72 2.512 1.712l11.728 54.624Z" fill="#F7E857"/>
        <path d="M175.294 85.456c.224.976-.4 1.952-1.392 2.176 0 0-25.12 5.536-33.504 7.376L126.75 36.896l34.288-7.76c.976-.224 1.952.4 2.176 1.392l12.08 54.928Z" fill="#F9CB38"/>
        <path d="m159.037 26.96-34.048 7.488c-.496.112-.384.544-.032.912.368.384.992.72 1.488.608l32.688-7.248c1.712-.448 2.112-.304 2.112-.304l-2.208-1.456Z" fill="#fff"/>
        <path d="M123.021 34.272s-.16.768.912 1.76c1.072.976 2.752.928 2.816.864.08-.064 13.664 58.112 13.664 58.112s-4.896-1.2-5.584-4.352c-.576-2.592-9.136-40.832-11.808-53.68-.592-2.768 0-2.704 0-2.704Z" fill="#F7BE1C"/>
        <path d="m170.711 32.6625-33.68 2.9587 5.007 56.9985 33.68-2.9586-5.007-56.9986Z" fill="#8258C6"/>
        <path d="m170.877 34.672-30.72 2.672-1.968-.848 32.592-2.864.096 1.04Z" fill="#DADBE0"/>
        <path d="M140.477 38.528c.048.544-.304 1.008-.8 1.056-.48.048-.928-.352-.96-.896-.048-.528.304-1.008.8-1.056.48-.032.912.368.96.896ZM140.749 41.728c.048.544-.304 1.008-.8 1.056-.48.048-.928-.352-.96-.896-.048-.544.304-1.008.8-1.056.48-.032.912.368.96.896ZM141.038 44.928c.048.544-.304 1.008-.8 1.056-.48.048-.928-.352-.96-.896-.048-.544.304-1.008.8-1.056.48-.032.912.368.96.896ZM141.309 48.128c.048.544-.304 1.008-.8 1.056-.48.048-.928-.352-.96-.896-.048-.544.304-1.008.8-1.056.48-.032.912.368.96.896ZM141.596 51.328c.048.528-.304 1.008-.8 1.056-.48.048-.928-.352-.96-.896-.048-.544.304-1.008.8-1.056.48-.032.912.368.96.896ZM141.87 54.528c.048.544-.304 1.008-.8 1.056-.48.048-.928-.352-.96-.896-.048-.544.304-1.008.8-1.056.496-.048.912.368.96.896ZM142.157 57.728c.048.544-.304 1.008-.8 1.056-.48.048-.928-.352-.96-.896-.048-.528.304-1.008.8-1.04.48-.048.912.352.96.88ZM142.446 60.928c.048.544-.304 1.008-.8 1.056-.48.048-.928-.352-.96-.896-.048-.544.304-1.008.8-1.056.48-.032.912.368.96.896ZM142.718 64.128c.048.544-.304 1.008-.8 1.056-.48.048-.928-.352-.96-.896-.048-.544.304-1.008.8-1.056.48-.032.912.368.96.896ZM143.005 67.328c.048.544-.304 1.008-.8 1.056-.48.048-.928-.352-.96-.896-.048-.544.304-1.008.8-1.056.48-.032.912.368.96.896ZM143.278 70.528c.048.544-.304 1.008-.8 1.056-.48.048-.928-.352-.96-.896-.048-.544.304-1.008.8-1.056.48-.032.912.368.96.896ZM143.565 73.728c.048.544-.304 1.008-.8 1.056-.48.048-.928-.352-.96-.896-.048-.544.304-1.008.8-1.056.48-.032.912.368.96.896ZM143.837 76.928c.048.544-.304 1.008-.8 1.056-.48.048-.928-.352-.96-.896-.048-.544.304-1.008.8-1.056.48-.032.912.368.96.896ZM144.126 80.128c.048.544-.304 1.008-.8 1.056-.48.048-.928-.352-.96-.896-.048-.544.304-1.008.8-1.056.48-.032.912.368.96.896ZM144.413 83.328c.048.544-.304 1.008-.8 1.056-.48.048-.928-.352-.96-.896-.048-.544.304-1.008.8-1.056.48-.032.912.368.96.896ZM144.686 86.528c.048.528-.304 1.008-.8 1.04-.48.048-.928-.352-.96-.896-.048-.544.304-1.008.8-1.056.48-.016.912.384.96.912ZM144.973 89.728c.048.528-.304 1.008-.8 1.056-.48.048-.928-.352-.96-.896-.048-.544.304-1.008.8-1.056.48-.032.912.368.96.896Z" fill="#7B45BA"/>
        <path d="M140.028 38.64c.016.272-.16.512-.416.528l-3.888.336c-.256.016-.48-.176-.512-.448-.032-.272.16-.512.416-.528l3.888-.336c.256-.016.496.176.512.448ZM140.317 41.84c.016.272-.16.512-.416.528l-3.888.336c-.256.016-.48-.176-.512-.448-.016-.272.16-.512.416-.528l3.888-.336c.256-.032.48.176.512.448ZM140.588 45.04c.016.272-.16.512-.416.528l-3.888.336c-.256.016-.48-.176-.512-.448-.016-.272.16-.512.416-.528l3.888-.336c.256-.032.496.176.512.448ZM140.876 48.224c.016.272-.16.512-.416.528l-3.888.336c-.256.016-.48-.176-.512-.448-.016-.272.16-.512.416-.528l3.888-.336c.256-.016.48.176.512.448ZM141.149 51.424c.016.272-.16.512-.416.528l-3.888.336c-.256.016-.48-.176-.512-.448-.016-.272.16-.512.416-.528l3.888-.336c.272-.016.496.176.512.448ZM141.437 54.624c.016.272-.16.512-.416.528l-3.888.336c-.256.016-.48-.176-.512-.448-.032-.272.16-.512.416-.528l3.888-.336c.256-.032.48.176.512.448ZM141.708 57.824c.016.272-.16.512-.416.528l-3.888.336c-.256.016-.48-.176-.512-.448-.016-.272.16-.512.416-.528l3.888-.336c.272-.032.496.176.512.448ZM141.997 61.008c.016.272-.16.512-.416.528l-3.888.336c-.256.016-.48-.176-.512-.448-.016-.272.16-.512.416-.528l3.888-.336c.256-.016.48.176.512.448ZM142.268 64.208c.016.272-.16.512-.416.528l-3.888.336c-.256.016-.48-.176-.512-.448-.016-.272.16-.512.416-.528l3.888-.336c.272-.032.496.176.512.448ZM142.557 67.408c.016.272-.16.512-.416.528l-3.888.336c-.256.016-.48-.176-.512-.448-.016-.272.16-.512.416-.528l3.888-.336c.256-.032.48.176.512.448ZM142.829 70.592c.016.272-.16.512-.416.528l-3.888.336c-.256.016-.48-.176-.512-.448-.032-.272.16-.512.416-.528l3.888-.336c.272-.016.496.176.512.448ZM143.116 73.792c.016.272-.16.512-.416.528l-3.888.336c-.256.016-.48-.176-.512-.448-.016-.272.16-.512.416-.528l3.888-.336c.256-.016.496.176.512.448ZM143.405 76.992c.016.272-.16.512-.416.528l-3.888.336c-.256.016-.48-.176-.512-.448-.016-.272.16-.512.416-.528l3.888-.336c.256-.032.48.176.512.448ZM143.676 80.192c.032.272-.16.512-.416.528l-3.888.336c-.256.016-.48-.176-.512-.448-.016-.272.16-.512.416-.528l3.888-.336c.256-.032.496.176.512.448ZM143.964 83.376c.016.272-.16.512-.416.528l-3.888.336c-.256.016-.48-.176-.512-.448-.032-.272.16-.512.416-.528l3.888-.336c.256-.016.48.176.512.448ZM144.237 86.576c.032.272-.16.512-.416.528l-3.888.336c-.256.016-.48-.176-.512-.448-.016-.272.16-.512.416-.528l3.888-.336c.272-.032.496.176.512.448ZM144.524 89.776c.016.272-.16.512-.416.528l-3.888.336c-.256.016-.48-.176-.512-.448-.016-.272.16-.512.416-.528l3.888-.336c.256-.032.48.176.512.448Z" fill="#fff"/>
        <path d="M160.812 46.272V144H130.46s-4.832-.608-5.856-2.768c-1.04-2.16-1.728-6.464-1.728-8.608V74.176s-1.024-10.944 9.312-20.784c6.304-6 15.568-7.136 21.824-7.104 4.016 0 6.8-.016 6.8-.016Z" fill="#3D97E9"/>
        <path d="M160.812 46.272V144h30.353s4.832-.608 5.856-2.768c1.04-2.16 1.728-6.464 1.728-8.608V74.176s1.023-10.944-9.313-20.784c-6.32-6.016-15.615-7.136-21.887-7.104-3.984.016-6.737-.016-6.737-.016Z" fill="#3D97E9"/>
        <path d="M153.982 44.224c-6.32-.032-15.68 1.296-22.048 8.368-6.8 7.536-8.736 15.616-9.248 20.352.144.4.304.8.48 1.184.96-4.752 3.28-11.216 8.784-17.328 6.368-7.072 15.712-8.4 22.048-8.368 4.048.016 6.864 0 6.864 0v-4.224c-.016.016-2.816.032-6.88.016Z" fill="#079BD6"/>
        <path d="M189.756 52.592c-6.384-7.088-15.776-8.416-22.096-8.368-4.016.032-6.816 0-6.816 0v4.224s2.784.032 6.816 0c6.32-.048 15.712 1.28 22.096 8.368 5.792 6.416 8.048 13.232 8.912 18.032.144-.352.288-.72.416-1.072-.368-4.576-2.112-13.184-9.328-21.184Z" fill="#079BD6"/>
        <path d="M178.204 66.464c-3.84-4.432-9.472-5.264-13.28-5.248-2.416.016-4.096 0-4.096 0s-1.696.016-4.128 0c-3.808-.016-9.424.816-13.248 5.248-4.08 4.72-5.376 10.976-5.696 13.936h.352c.576-2.976 2.032-7.472 5.344-11.296 3.824-4.432 9.44-5.264 13.248-5.248 2.432.016 4.128 0 4.128 0s1.68.016 4.096 0c3.808-.032 9.44.8 13.28 5.248 3.472 4.016 4.832 8.288 5.36 11.296l.384.032c-.24-2.864-1.424-8.96-5.744-13.968Z" fill="#1871D2"/>
        <path d="m167.662 40.416-16.224 23.472 20.544 14.208-4.32-37.68Zm-2.385 10.56 2.16 18.832-10.271-7.088 8.111-11.744Z" fill="#A18DC6"/>
        <path d="m165.949 39.296-16.224 23.472 20.544 14.208-4.32-37.68Zm-2.384 10.576 2.16 18.832-10.272-7.104 8.112-11.728Z" fill="#F9CB38"/>
        <path d="m164.052 42.0356-.136.1975 1.83 1.2643.136-.1974-1.83-1.2644ZM163.22 43.2436l-.136.1974 1.83 1.2644.136-.1975-1.83-1.2643ZM162.392 44.4554l-.136.1975 1.83 1.2643.136-.1974-1.83-1.2644ZM161.539 45.6727l-.137.1974 1.83 1.2646.136-.1974-1.829-1.2646ZM160.707 46.8766l-.137.1975 1.83 1.2643.136-.1974-1.829-1.2644ZM159.877 48.0926l-.137.1974 1.83 1.2645.136-.1974-1.829-1.2645ZM159.037 49.3084l-.137.1974 1.83 1.2643.137-.1974-1.83-1.2643ZM158.193 50.5093l-.136.1974 1.829 1.2644.137-.1975-1.83-1.2643ZM157.363 51.7198l-.136.1974 1.829 1.2644.137-.1975-1.83-1.2643ZM156.523 52.9429l-.136.1974 1.829 1.2644.137-.1975-1.83-1.2643ZM155.677 54.1419l-.136.1975 1.83 1.2643.136-.1975-1.83-1.2643ZM154.847 55.3579l-.136.1974 1.829 1.2646.137-.1975-1.83-1.2645ZM154.008 56.5751l-.137.1974 1.83 1.2644.136-.1975-1.829-1.2643ZM153.177 57.7845l-.136.1975 1.83 1.2643.136-.1974-1.83-1.2644ZM152.334 58.9872l-.137.1974 1.83 1.2644.136-.1975-1.829-1.2643ZM151.494 60.2093l-.137.1974 1.83 1.2644.137-.1975-1.83-1.2643ZM150.664 61.4218l-.137.1975 1.83 1.2643.136-.1974-1.829-1.2644Z" fill="#C96532"/>
        <path d="M188.829 106.848h-55.312c-2.192 0-3.968 2.96-3.968 4.832v23.104c0 1.872 1.776 3.408 3.968 3.408h55.312c2.192 0 3.968-1.52 3.968-3.408v-24.528c0-1.888-1.776-3.408-3.968-3.408Z" fill="#035470"/>
        <path d="m179.98 75.168 6.192-16.464-.016-3.36v-1.84l-4.208 3.616-1.968 5.248-.016-2.896-.016-3.008-2.016 2.288-2.192 2.48-3.392 9.008c2.912.944 5.568 2.816 7.632 4.928Z" fill="#9FADE2"/>
        <path d="m180.776 52.9019-8.161 21.7002 4.223 1.5882 8.161-21.7002-4.223-1.5882Z" fill="#EDA30F"/>
        <path d="m181.87 53.3186-8.161 21.7003 1.947.7321 8.161-21.7002-1.947-.7322Z" fill="#F7E857"/>
        <path d="m184.973 48.112.032 6.368-4.224-1.584 4.192-4.784Z" fill="#8C7451"/>
        <path d="m182.957 50.416 2.032.704-.016-3.008-2.016 2.304Z" fill="#F7E857"/>
        <path d="m183.661 50.672-1.296 2.816-1.584-.592 2.176-2.48.704.256Z" fill="#A0825A"/>
        <path d="m174.583 57.0125-8.161 21.7002 4.223 1.5882 8.161-21.7002-4.223-1.5882Z" fill="#D12902"/>
        <path d="m175.672 57.4284-8.158 21.7002 1.947.732 8.158-21.7003-1.947-.7319Z" fill="#FC471D"/>
        <path d="m178.78 52.224.032 6.368-4.224-1.584 4.192-4.784Z" fill="#8C7451"/>
        <path d="m176.764 54.528 2.032.704-.016-3.008-2.016 2.304Z" fill="#FC471D"/>
        <path d="m177.468 54.784-1.296 2.816-1.584-.592 2.176-2.48.704.256Z" fill="#A0825A"/>
        <path d="M160.812 80.4h-22.8s2.656-12.752 11.392-14.976c5.856-1.488 11.44-.88 11.44-.88l-.032 15.856Z" fill="#98C8F3"/>
        <path d="M160.668 80.4h22.896s-1.92-11.68-10.576-14.208c-8.656-2.528-12.128-1.648-12.128-1.648l-.192 15.856Z" fill="#98C8F3"/>
        <path d="M177.932 68.336c-3.808-3.872-9.408-4.608-13.2-4.576-2.4.016-4.064 0-4.064 0s-1.68.016-4.096 0c-3.776-.016-9.36.72-13.152 4.576-4.048 4.128-5.088 9.472-5.408 12.064h.288c.576-2.608 2.272-7.424 5.552-10.752 3.808-3.872 8.976-4.576 12.752-4.56 2.416.016 5.792.016 8.192 0 3.776-.016 8.864.672 12.688 4.56 3.456 3.52 5.312 8.128 5.824 10.768h.256c-.24-2.528-1.344-7.712-5.632-12.08Z" fill="#46454D"/>
        <path d="M138.989 78.368c-.672 0-1.2.544-1.2 1.2v5.376c0 .672.544 1.2 1.2 1.2.672 0 1.2-.544 1.2-1.2v-5.376c0-.656-.544-1.2-1.2-1.2Zm.432 3.456c0 .24-.192.432-.432.432s-.432-.192-.432-.432v-1.552c0-.24.192-.432.432-.432s.432.192.432.432v1.552Z" fill="#2C2B33"/>
        <path d="M160.412 101.664H188.7c2.24 0 4.064 1.712 4.064 3.84v27.664c0 2.112-1.824 3.84-4.064 3.84h-28.288v-35.344Z" fill="#0489B2"/>
        <path d="M129.533 119.232v13.92c0 2.128 1.776 3.856 3.968 3.856h55.312c2.192 0 3.968-1.728 3.968-3.856v-13.92h-63.248Z" fill="#079BD6"/>
        <path d="M188.796 101.456h-55.312c-2.192 0-3.968 1.728-3.968 3.856v6.272c0-2.128 1.584-5.936 3.76-5.936h55.472c2.912.08 4.016 3.808 4.016 5.936v-6.272c0-2.128-1.776-3.856-3.968-3.856Z" fill="#1871D2"/>
        <path d="M188.796 101.168h-55.312c-2.192 0-3.968 1.728-3.968 3.856v1.104c0-2.128 1.776-3.856 3.968-3.856h55.312c2.192 0 3.968 1.728 3.968 3.856v-1.104c0-2.128-1.776-3.856-3.968-3.856Z" fill="#2C2B33"/>
        <path d="M162.461 105.536h-19.168l.512-11.216 18.32 2.56.336 8.656Z" fill="#9FADE2"/>
        <path d="M160.781 105.536h-18.256v-10.4l18.256 2.576v7.824Z" fill="#fff"/>
        <path d="M152.142 124.496c.448.976.032 2.128-.928 2.576l-1.024.48c-.976.448-2.128.032-2.576-.928l-10.992-23.488c-.448-.96-.032-2.112.928-2.576l1.024-.48c.976-.448 2.112-.032 2.576.928l10.992 23.488Z" fill="#2C2B33"/>
        <path d="M141.357 100.688c.448.96.032 2.112-.928 2.576l-1.6.752c-.96.448-2.112.032-2.576-.928l-5.28-11.28c-.448-.96-.032-2.112.928-2.576l1.6-.752c.96-.448 2.112-.032 2.576.928l5.28 11.28Z" fill="#46454D"/>
        <path d="M192.764 133.6c0 1.872-1.776 3.408-3.968 3.408h-55.312c-2.192 0-3.968-1.52-3.968-3.408v-23.104c0-1.872 1.776-4.832 3.968-4.832h55.312c2.192 0 3.968 1.52 3.968 3.408V133.6Z" fill="#98C8F3"/>
        <path d="M192.765 119.232h-63.232v-1.152h63.232v1.152Z" fill="#46454D"/>
        <path d="M129.869 118.656c-.992 0-1.808.64-1.808 1.424v6.608c0 .784.8 1.424 1.808 1.424.992 0 1.808-.64 1.808-1.424v-6.608c-.016-.784-.816-1.424-1.808-1.424Zm.976 3.136c0 .4-.416.72-.912.72-.512 0-.912-.32-.912-.72v-1.504c0-.4.416-.72.912-.72.512 0 .912.32.912.72v1.504Z" fill="#2C2B33"/>
        <path d="M160.412 119.232v17.776h28.384c2.192 0 3.968-1.728 3.968-3.856v-13.92h-32.352Z" fill="#98C8F3"/>
        <path d="M188.701 105.536h-55.04c-2.176 0-3.952 1.728-3.952 3.856.736-1.664 1.76-2.752 3.952-2.752h55.04c2.176 0 3.952 1.728 3.952 3.856v-1.104c0-2.128-1.776-3.856-3.952-3.856Z" fill="#46454D"/>
        <path d="M140.717 105.984c.16.336.016.752-.336.912-.336.16-.752.016-.912-.336l-6.384-13.632c-.16-.336-.016-.752.336-.912.336-.16.752-.016.912.336l6.384 13.632Z" fill="#F7E857"/>
        <path d="M132.748 119.232s22.688 2.144 35.888 2.096c13.2-.048 24.128-2.096 24.128-2.096h-60.016Z" fill="#000" fill-opacity=".38"/>
        <path d="M191.613 102.432c-.992 0-1.808.64-1.808 1.424v6.608c0 .784.8 1.424 1.808 1.424.992 0 1.792-.64 1.792-1.424v-6.608c0-.784-.8-1.424-1.792-1.424Zm.976 3.136c0 .4-.416.72-.912.72-.512 0-.912-.32-.912-.72v-1.504c0-.4.416-.72.912-.72.512 0 .912.32.912.72v1.504Z" fill="#2C2B33"/>
    </g>
    <defs>
        <clipPath id="skill-es-61-a">
            <path fill="#fff" d="M0 0h320v160H0z"/>
        </clipPath>
    </defs>
</svg>